<?xml version="1.0" encoding="UTF-8" standalone="no"?>
<!-- Created with Inkscape (http://www.inkscape.org/) -->

<svg
   xmlns:dc="http://purl.org/dc/elements/1.1/"
   xmlns:cc="http://creativecommons.org/ns#"
   xmlns:rdf="http://www.w3.org/1999/02/22-rdf-syntax-ns#"
   xmlns:svg="http://www.w3.org/2000/svg"
   xmlns="http://www.w3.org/2000/svg"
   xmlns:sodipodi="http://sodipodi.sourceforge.net/DTD/sodipodi-0.dtd"
   xmlns:inkscape="http://www.inkscape.org/namespaces/inkscape"
   width="94.985413mm"
   height="73.289581mm"
   viewBox="0 0 94.985413 73.289581"
   version="1.1"
   id="svg8"
   inkscape:version="0.92.5 (2060ec1f9f, 2020-04-08)"
   sodipodi:docname="MrBeast_signature.svg">
  <defs
     id="defs2" />
  <sodipodi:namedview
     id="base"
     pagecolor="#ffffff"
     bordercolor="#666666"
     borderopacity="1.0"
     inkscape:pageopacity="0.0"
     inkscape:pageshadow="2"
     inkscape:zoom="0.98994949"
     inkscape:cx="-143.44422"
     inkscape:cy="184.6028"
     inkscape:document-units="mm"
     inkscape:current-layer="layer1"
     showgrid="false"
     inkscape:pagecheckerboard="true"
     fit-margin-top="0"
     fit-margin-left="0"
     fit-margin-right="0"
     fit-margin-bottom="0"
     inkscape:window-width="1920"
     inkscape:window-height="1009"
     inkscape:window-x="1912"
     inkscape:window-y="70"
     inkscape:window-maximized="1" />
  <metadata
     id="metadata5">
    <rdf:RDF>
      <cc:Work
         rdf:about="">
        <dc:format>image/svg+xml</dc:format>
        <dc:type
           rdf:resource="http://purl.org/dc/dcmitype/StillImage" />
        <dc:title></dc:title>
      </cc:Work>
    </rdf:RDF>
  </metadata>
  <g
     inkscape:label="Layer 1"
     inkscape:groupmode="layer"
     id="layer1"
     transform="translate(-106.53716,-85.790876)">
    <g
       id="g12"
       transform="matrix(0.09208238,0,0,-0.092162,81.93028,179.3561)"
       style="fill:#000000;stroke:none">
      <path
         id="path10"
         d="M 1031,1009 C 941,973 916,944 890,845 c -17,-65 -27,-75 -40,-39 -18,48 -60,84 -96,84 -17,0 -37,-6 -43,-13 -18,-22 -81,-147 -81,-162 0,-7 -7,-18 -15,-25 -13,-10 -15,-9 -15,10 0,32 -54,141 -84,169 -46,43 -61,24 -96,-126 -26,-113 -59,-196 -110,-277 -22,-35 -41,-73 -42,-87 -3,-20 2,-24 28,-27 31,-3 33,-1 82,100 27,57 62,144 77,193 34,110 32,107 54,96 18,-10 44,-100 57,-199 5,-43 10,-53 30,-58 34,-9 41,0 54,64 12,56 20,85 59,192 25,69 49,77 80,25 22,-38 52,-181 47,-227 -3,-22 3,-29 26,-39 40,-16 44,-8 52,109 13,182 45,289 99,323 55,34 180,9 207,-41 16,-29 7,-49 -50,-109 -28,-29 -50,-61 -50,-70 0,-9 20,-37 45,-61 25,-24 45,-50 45,-58 0,-21 -91,-106 -135,-126 -22,-10 -58,-27 -81,-37 -22,-10 -44,-19 -49,-19 -4,0 -45,-18 -91,-40 -46,-22 -89,-40 -95,-40 -11,0 -57,-19 -171,-73 -43,-20 -61,-37 -40,-37 13,0 175,38 207,48 46,16 254,101 284,116 14,8 47,21 72,30 51,18 150,97 168,134 23,48 10,92 -46,150 -19,19 -17,24 22,68 58,64 58,122 2,181 -45,48 -173,83 -226,62 z"
         inkscape:connector-curvature="0" />
    </g>
  </g>
</svg>
