<?xml version="1.0" encoding="UTF-8" standalone="no"?>
<svg
   xmlns:dc="http://purl.org/dc/elements/1.1/"
   xmlns:cc="http://creativecommons.org/ns#"
   xmlns:rdf="http://www.w3.org/1999/02/22-rdf-syntax-ns#"
   xmlns:svg="http://www.w3.org/2000/svg"
   xmlns="http://www.w3.org/2000/svg"
   xmlns:sodipodi="http://sodipodi.sourceforge.net/DTD/sodipodi-0.dtd"
   xmlns:inkscape="http://www.inkscape.org/namespaces/inkscape"
   inkscape:version="1.0 (4035a4fb49, 2020-05-01)"
   sodipodi:docname="Sidemen_Logo.svg"
   id="svg34"
   version="1.1"
   viewBox="0 0 800 230">
  <metadata
     id="metadata38">
    <rdf:RDF>
      <cc:Work
         rdf:about="">
        <dc:format>image/svg+xml</dc:format>
        <dc:type
           rdf:resource="http://purl.org/dc/dcmitype/StillImage" />
        <dc:title></dc:title>
      </cc:Work>
    </rdf:RDF>
  </metadata>
  <sodipodi:namedview
     inkscape:current-layer="svg34"
     inkscape:window-maximized="1"
     inkscape:window-y="-9"
     inkscape:window-x="2391"
     inkscape:cy="62.019868"
     inkscape:cx="400"
     inkscape:zoom="1.51"
     showgrid="false"
     id="namedview36"
     inkscape:window-height="974"
     inkscape:window-width="1920"
     inkscape:pageshadow="2"
     inkscape:pageopacity="0"
     guidetolerance="10"
     gridtolerance="10"
     objecttolerance="10"
     borderopacity="1"
     bordercolor="#666666"
     pagecolor="#ffffff" />
  <defs
     id="defs4">
  </defs>
  <path
     id="path8"
     d="M560.15,168.15H523.93c-2.07-41.67-4.12-82.89-6.18-124.37,1.61-1.06,3.22-2.14,5.61-3.73H498.65c1.62,39.12,3.23,77.84,4.88,117.7l-36.7-21.67c-.83-30.69-1.66-61.18-2.49-91.65l5.83-3.51H445.32c.8,42.11,1.6,84,2.4,126.16H411.56V21l139.09-2.45C553.81,68.38,557,118,560.15,168.15Z" />
  <path
     id="path10"
     d="M670.91,13l95.16-6.5q11.58,84.41,23.07,168.19h-36C747.19,128,741.34,82.09,735.47,36l6.26-4.82L707.63,33c5.55,46.75,11,93.11,16.55,139.38h-36C682.36,119,676.66,66.24,670.91,13Z" />
  <path
     id="path12"
     d="M112.66,171.82,11.51,175.64c3.17-23.21,6.29-46.06,9.42-69H56.24c-1.75,13.84-3.46,27.26-5.14,40.52l-6.54,3.93H79.05c1.79-15.08,3.53-29.68,5.27-44.28L25.14,76.1C28.31,52.9,31.45,30,34.66,6.49L129.83,13c-2.35,21.78-4.66,43.13-7,64.52h-35c1.63-13.79,3.19-27,4.73-40.1l5.73-3.27-.16-.91L65.9,31.53C64,46.56,62.06,61.27,60,76.88l59.65,30C117.36,128.47,115,150,112.66,171.82Z" />
  <path
     id="path14"
     d="M288.36,19.49c-2,42-4,83.58-6,125.56-8.76,7.34-17.63,14.84-26.6,22.23a6.37,6.37,0,0,1-3.67,1.15q-35.19.82-70.39,1.51a10.76,10.76,0,0,1-1.74-.51c4.34-50.79,8.69-101.74,13.09-153.2ZM225.66,38.8Q221.77,92,218,144.21l-5.88,3.66h34.18c2.19-35.25,4.34-70,6.5-104.73l5.72-3.37-.36-1Z" />
  <path
     id="path16"
     d="M563.14,18l95.27-4.31c2.24,21.66,4.44,42.87,6.7,64.64h-35q-1.73-18.41-3.5-37.48l5-3.59H599c1.4,17.1,2.72,33.36,4.06,49.81h18.12l12,10.52c0,.38-.11.76-.16,1.15H604c1.26,15.94,2.44,30.94,3.62,45.91l-5,2.88v.87h33.81c-1.18-13.45-2.38-27.22-3.63-41.4h35.27c2.2,21.19,4.41,42.4,6.69,64.38l-101.29-2.5Z" />
  <path
     id="path18"
     d="M302.94,20.41h95v60H363.79V44.78l6.39-3.86H336.25V88H353c3.93,3.67,7.61,7.1,12.19,11.39H334.55v43.51L327,147.08h35.49V107.47h35.44v59.78H296.8Q299.88,93.77,302.94,20.41Z" />
  <path
     id="path20"
     d="M791.6,192.91c1.23,8.78,2.39,17,3.49,25.17a14.64,14.64,0,0,1,0,2.58L481.35,206.57l-9.92-11.3,10.42-12.61C585,183.75,688,187.23,791.6,192.91Z" />
  <path
     id="path22"
     d="M5.31,220.67C6.49,212.08,7.75,202.9,9.12,193c103-5.76,206.05-9.13,309.75-10.31l10.4,12.57-9.85,11.37Z" />
  <path
     id="path24"
     d="M164.39,170.68H128.26c5.35-52,10.72-104.15,16.16-157L178.5,15.4C173.79,67.19,169.14,118.46,164.39,170.68Z" />
  <path
     id="path26"
     d="M463.65,213.14H447l-7.79-9.49-7.22,9.2H415.11l14.67-18.33L416,177.06h16.48c1.9,2.42,4.12,5.23,6.53,8.31l6.3-8.33h16.65c-4.8,6.24-9.06,11.79-13.47,17.54Z" />
  <path
     id="path28"
     d="M371,194.49c4.84,6.06,9.38,11.76,14.44,18.11H368.66l-7.17-8.91L353.85,213H337.28l15-18.41-13.19-17.34h16.48l6.27,8,6.59-8.41h16.44Z" />
  <path
     id="path30"
     d="M393.73,176.9h13.45v35.73H393.73Z" />
</svg>
